<svg width="44" height="30" viewBox="0 0 44 30" fill="none" xmlns="http://www.w3.org/2000/svg">
<path fill-rule="evenodd" clip-rule="evenodd" d="M22.0001 6.6381L22.1886 6.58618C12.7984 9.48702 5.36918 14.4569 5.21631 18.107C5.0526 22.0135 13.2878 22.9306 23.605 20.1552C33.9217 17.3793 42.4212 11.9604 42.5839 8.0537C42.6684 6.0294 40.4952 4.80866 36.948 4.48734C41.284 4.68065 44 5.93815 44 8.18428C44 12.4652 34.1484 18.715 22.0001 22.1433C9.85189 25.5701 0 24.8773 0 20.5966C0 16.3159 9.85189 10.0656 22.0001 6.6381Z" fill="#6E6E6E"/>
<path fill-rule="evenodd" clip-rule="evenodd" d="M4.7724 29.1462L35.2711 2.6371e-05L32.5066 22.9119L27.4638 17.164L4.7724 29.1462Z" fill="#ED153E"/>
</svg>