<svg width="141" height="141" viewBox="0 0 141 141" fill="none" xmlns="http://www.w3.org/2000/svg">
<circle cx="70.5" cy="70.5" r="70.5" fill="#F4F4FB"/>
<path fill-rule="evenodd" clip-rule="evenodd" d="M57.2501 57.499C57.2501 50.4574 62.9585 44.749 70.0001 44.749C77.0417 44.749 82.7501 50.4574 82.7501 57.499C82.7501 64.5407 77.0417 70.249 70.0001 70.249C62.9585 70.249 57.2501 64.5407 57.2501 57.499ZM70.0001 49.249C65.4437 49.249 61.7501 52.9427 61.7501 57.499C61.7501 62.0554 65.4437 65.749 70.0001 65.749C74.5565 65.749 78.2501 62.0554 78.2501 57.499C78.2501 52.9427 74.5565 49.249 70.0001 49.249Z" fill="#D2D2DB"/>
<path fill-rule="evenodd" clip-rule="evenodd" d="M57.9999 79.251C54.272 79.251 51.2499 82.2732 51.2499 86.001V89.5659C51.2499 89.6202 51.2892 89.6664 51.3428 89.6751C63.699 91.6926 76.3008 91.6926 88.6569 89.6751C88.7106 89.6664 88.7499 89.6202 88.7499 89.5659V86.001C88.7499 82.2732 85.7277 79.251 81.9999 79.251H80.9772C80.8983 79.251 80.8197 79.2636 80.7444 79.2879L78.1479 80.136C72.8535 81.8646 67.1463 81.8646 61.8518 80.136L59.2553 79.2879C59.1801 79.2636 59.1015 79.251 59.0225 79.251H57.9999ZM46.7499 86.001C46.7499 79.7877 51.7867 74.751 57.9999 74.751H59.0225C59.576 74.751 60.1259 74.8386 60.6521 75.0102L63.2486 75.8583C67.6356 77.2905 72.3642 77.2905 76.7511 75.8583L79.3476 75.0102C79.8738 74.8386 80.4237 74.751 80.9772 74.751H81.9999C88.2132 74.751 93.2499 79.7877 93.2499 86.001V89.5659C93.2499 91.8255 91.6122 93.7521 89.382 94.1163C76.5456 96.2121 63.4542 96.2121 50.6177 94.1163C48.3875 93.7521 46.7499 91.8255 46.7499 89.5659V86.001Z" fill="#D2D2DB"/>
</svg>
