<svg width="26" height="21" viewBox="0 0 26 21" fill="none" xmlns="http://www.w3.org/2000/svg">
<path fill-rule="evenodd" clip-rule="evenodd" d="M0.690063 6.79098C0.690063 3.07779 4.04634 0.21875 7.9859 0.21875C10.0166 0.21875 11.8035 1.14294 13.0859 2.33877C14.3683 1.14294 16.1551 0.21875 18.1859 0.21875C22.1255 0.21875 25.4817 3.07779 25.4817 6.79098C25.4817 9.33459 24.3641 11.5713 22.8158 13.4621C21.2701 15.3497 19.2484 16.9515 17.3125 18.2532C16.573 18.7504 15.825 19.209 15.1405 19.5474C14.4976 19.8652 13.7584 20.1562 13.0859 20.1562C12.4134 20.1562 11.6742 19.8652 11.0313 19.5474C10.3468 19.209 9.59871 18.7504 8.85931 18.2532C6.92347 16.9515 4.90163 15.3497 3.35598 13.4621C1.80764 11.5713 0.690063 9.33459 0.690063 6.79098ZM7.9859 2.28125C5.04029 2.28125 2.81506 4.38376 2.81506 6.79098C2.81506 8.72079 3.6591 10.5175 5.01952 12.1788C6.38263 13.8434 8.2167 15.312 10.0694 16.5579C10.7705 17.0292 11.4308 17.4303 11.9958 17.7096C12.6022 18.0093 12.9537 18.0938 13.0859 18.0938C13.2181 18.0938 13.5695 18.0093 14.176 17.7096C14.741 17.4303 15.4013 17.0292 16.1024 16.5579C17.9551 15.312 19.7891 13.8434 21.1523 12.1788C22.5127 10.5175 23.3567 8.72079 23.3567 6.79098C23.3567 4.38376 21.1314 2.28125 18.1859 2.28125C16.4941 2.28125 14.9145 3.2622 13.9282 4.50727C13.7271 4.76115 13.4158 4.90992 13.0859 4.90992C12.756 4.90992 12.4447 4.76115 12.2435 4.50727C11.2573 3.2622 9.67761 2.28125 7.9859 2.28125Z" fill="#FF6971"/>
</svg>
