<svg width="26" height="21" viewBox="0 0 26 21" fill="none" xmlns="http://www.w3.org/2000/svg">
<path fill-rule="evenodd" clip-rule="evenodd" d="M0.689941 7.00777C0.689941 3.29458 4.04622 0.435547 7.98577 0.435547C10.0165 0.435547 11.8034 1.35974 13.0858 2.55556C14.3681 1.35974 16.155 0.435547 18.1858 0.435547C22.1254 0.435547 25.4816 3.29458 25.4816 7.00777C25.4816 9.55138 24.364 11.7881 22.8157 13.6789C21.27 15.5665 19.2483 17.1683 17.3124 18.47C16.5729 18.9672 15.8249 19.4258 15.1404 19.7642C14.4975 20.082 13.7583 20.373 13.0858 20.373C12.4133 20.373 11.6741 20.082 11.0312 19.7642C10.3466 19.4258 9.59859 18.9672 8.85919 18.47C6.92335 17.1683 4.90151 15.5665 3.35585 13.6789C1.80752 11.7881 0.689941 9.55138 0.689941 7.00777Z" fill="#FF6971"/>
</svg>
