<svg width="19" height="18" viewBox="0 0 19 18" fill="none" xmlns="http://www.w3.org/2000/svg">
    <path
        d="M8.61193 1.48459C8.9683 0.387787 10.52 0.387785 10.8764 1.48458L12.171 5.4692C12.3304 5.9597 12.7875 6.2918 13.3032 6.2918H17.4929C18.6462 6.2918 19.1256 7.76753 18.1927 8.44539L14.8031 10.908C14.3859 11.2112 14.2113 11.7485 14.3707 12.239L15.6654 16.2236C16.0217 17.3204 14.7664 18.2325 13.8334 17.5546L10.4439 15.092C10.0266 14.7888 9.46164 14.7888 9.0444 15.092L5.65488 17.5546C4.72189 18.2325 3.46656 17.3204 3.82293 16.2236L5.11761 12.239C5.27698 11.7485 5.10239 11.2112 4.68514 10.908L1.29563 8.44539C0.362635 7.76753 0.84213 6.2918 1.99537 6.2918H6.18504C6.70079 6.2918 7.15788 5.9597 7.31725 5.4692L8.61193 1.48459Z"
        fill="#FFB800" />
</svg>